<?xml version="1.0" standalone="no"?>
<!DOCTYPE svg PUBLIC "-//W3C//DTD SVG 1.1//EN" "http://www.w3.org/Graphics/SVG/1.1/DTD/svg11.dtd" >
<svg xmlns="http://www.w3.org/2000/svg" xmlns:svg="http://www.w3.org/2000/svg" xmlns:xlink="http://www.w3.org/1999/xlink" viewBox="0 0 1024 1024"><path d="M728.95 935.49Q716.12 851.01 800.88 904.01H779.83Q851.36 887.19 885.53 822.79V109.92Q890.15 69.99 861.03 25.89Q952.51 37.57 971.16 83.08V888.85Q957.24 954.76 860.97 965.49H766.42Q745.98 924.05 703.24 946.26ZM169.67 211.19L201.15 163.11Q157.38 190.05 175.09 124.96Q149.62 118.81 152.78 94.53Q158.62 60.3 176.71 77.26Q183.41 96.77 262.12 82.15Q272.53 141.43 307.47 115.69Q319.72 198.35 264.68 164.35Q270.31 192.1 221.41 198.29Q258.46 215.59 218.19 169.97ZM295.77 616.86V172.16Q311.37 67.49 370.64 55.13H529.68Q622.7 108.95 638.61 142.42V644.6Q637.25 716.42 563.33 745.27H410.71Q327.58 735.57 282.17 659.6ZM693.4 721.15V159.52Q687.58 175.85 736 124.37Q741.94 126.89 777.17 142.58V750.82Q722.83 775.81 758.14 773.68Q658.45 786.67 671.36 727.49ZM527.42 169.22Q537.53 171.04 514.14 124.1H422Q376.39 190.9 359.29 214.72V244.1H518.91ZM109.88 439.87Q61.85 385.85 60.06 362.69Q104.1 364.29 116.73 344.75Q121.66 357.44 142.41 295.67Q178.94 359.31 218.05 379.92Q252.26 376.19 227.88 396.47Q227.29 460.37 254.49 457.58Q206.17 476.27 214.96 447.26Q205.72 449.66 122.63 411.58ZM566.6 425.57V314.85H360.91V466.65ZM534.71 629.35V540.11H390.69V634.92Q425.37 686.01 383.85 700.48H519.04Q566.28 638.34 549.82 606.14ZM117.54 916.89Q49.17 879.51 95.79 840.79Q117.74 753.75 142.64 631.85Q148.03 610.71 215.21 578.92Q244.94 558.53 285.52 642.82Q283.41 596.88 203.99 738.01Q185.58 904.95 193.07 935.26Q186.94 930.6 178.58 964.78Q114.95 945.19 154.79 909.77Q118.3 915.45 76.55 888.59ZM294.27 872.43Q278.19 878.87 257.41 855.56Q317.64 788.9 350.81 784.7Q345 719.63 355.88 755.87Q367.17 752.28 413.57 760.69Q418.37 758.54 462.56 746.95Q426.94 766.29 407.94 853.38Q348.35 919.03 305.04 959.7Q283.09 928.48 283.53 891.04ZM564.25 918.4L523.02 805.74Q490.12 805.11 483.72 783.6Q533.71 792.22 527.15 765.64Q514.62 761.79 533.49 743.92Q544.33 744.75 507.39 762.77Q552.16 728.72 576.33 774.72Q678.49 867.52 633.58 891.14Q659.96 938.42 583.12 923.87Q578.39 904.19 537.49 866.76Z" fill="black"></path></svg>