<?xml version="1.0" standalone="no"?>
<!DOCTYPE svg PUBLIC "-//W3C//DTD SVG 1.1//EN" "http://www.w3.org/Graphics/SVG/1.1/DTD/svg11.dtd" >
<svg xmlns="http://www.w3.org/2000/svg" xmlns:svg="http://www.w3.org/2000/svg" xmlns:xlink="http://www.w3.org/1999/xlink" viewBox="0 0 1024 1024"><path d="M418.41 414.99V426.64H539.4V319.75ZM416.93 565.49V722.41H581.02V502.75ZM435.06 117.64V248.84H606.78V216.68ZM360.12 124.15H624.19V785.04H403.5ZM556.01 753.69L616.19 678.7Q666.56 820.9 717.57 919.6L652.25 913.58Q654.71 824.91 516.66 824.98ZM448.2 734.86L501.48 812.45Q395.71 941.98 382.17 924.29Q284.15 914.59 247.04 939.49Q297.33 917.19 176.38 913.31Q341.1 936.27 337.32 829.17Q361.64 752.87 438.5 791.04ZM876.55 -12.65H934.28V854.85Q1031.56 1009.15 986.75 981.76Q892.96 991.45 981.28 953.82Q918.33 925.61 737.46 977.31Q824.11 872.74 763.23 924.05Q805.97 972.21 906.26 932.92Q865.79 959.16 889.73 844.09ZM705.45 171.75H711.5V723.29H648.9ZM174.71 156.76L148.46 -4.19Q260.38 40.64 310.96 200.23Q266.5 147.24 357.05 96.67L268.99 246.76Q184.28 199.43 149.76 151.32Q183.44 137.93 92.22 102.97ZM120.77 364.19L55.67 325.01Q248.78 316.99 271.64 382.01L301.97 459.33Q233.02 453.2 86.74 336.46Q51.24 425.07 106.06 342.68ZM51.39 912.29Q134.84 754.83 185.95 644.39L275.44 611.82Q169.21 774.36 127.58 957.19Z" fill="black"></path></svg>