<?xml version="1.0" standalone="no"?>
<!DOCTYPE svg PUBLIC "-//W3C//DTD SVG 1.1//EN" "http://www.w3.org/Graphics/SVG/1.1/DTD/svg11.dtd" >
<svg xmlns="http://www.w3.org/2000/svg" xmlns:svg="http://www.w3.org/2000/svg" xmlns:xlink="http://www.w3.org/1999/xlink" viewBox="0 0 1024 1024"><path d="M407.5 344.5V470.5H569.5V344.5ZM407.5 533.5V661.5H569.5V533.5ZM407.5 156.5V281.5H569.5V156.5ZM342.5 88.5H637.5V728.5H342.5ZM522.5 778.5 579.5 746.5Q655.5 833.5 696.5 903.5L635.5 941.5Q596.5 868.5 522.5 778.5ZM384.5 749.5 454.5 768.5Q403.5 884.5 318.5 970.5Q312.5 975.5 307.5 980.5Q291.5 966.5 247.5 938.5Q330.5 865.5 379.5 760.5Q382.5 754.5 384.5 749.5ZM892.5 43.5H961.5V882.5Q961.5 940.5 930.5 958.5Q925.5 960.5 921.5 962.5Q883.5 977.5 760.5 977.5Q753.5 934.5 738.5 905.5Q824.5 908.5 868.5 905.5Q891.5 901.5 892.5 883.5ZM714.5 147.5H782.5V729.5H714.5ZM106.5 107.5 150.5 53.5Q253.5 102.5 309.5 154.5Q311.5 156.5 312.5 157.5L267.5 217.5Q218.5 166.5 117.5 113.5Q111.5 109.5 106.5 107.5ZM62.5 381.5 105.5 326.5Q219.5 373.5 273.5 420.5L230.5 482.5Q176.5 433.5 64.5 382.5Q63.5 381.5 62.5 381.5ZM83.5 924.5Q162.5 772.5 225.5 599.5L285.5 639.5Q221.5 818.5 152.5 965.5Z" fill="black"></path></svg>