<?xml version="1.0" standalone="no"?>
<!DOCTYPE svg PUBLIC "-//W3C//DTD SVG 1.1//EN" "http://www.w3.org/Graphics/SVG/1.1/DTD/svg11.dtd" >
<svg xmlns="http://www.w3.org/2000/svg" xmlns:svg="http://www.w3.org/2000/svg" xmlns:xlink="http://www.w3.org/1999/xlink" viewBox="0 0 1024 1024"><path d="M737.0 914.5Q737.0 873.5 779.0 873.5H817.0Q857.0 873.5 859.0 829.5V112.5Q859.0 63.5 899.0 63.5Q938.0 63.5 938.0 112.5V851.5Q945.0 960.5 832.0 956.5H779.0Q737.0 956.5 737.0 914.5ZM208.0 182.5 166.0 160.5Q146.0 150.5 136.5 140.5Q127.0 130.5 127.0 118.5Q127.0 77.5 168.0 77.5Q186.0 77.5 247.0 106.5Q284.0 124.5 284.0 151.5Q284.0 169.5 271.0 182.5Q258.0 195.5 246.0 195.5Q231.0 195.5 208.0 182.5ZM320.0 651.5V170.5Q320.0 90.5 400.0 90.5H532.0Q613.0 90.5 613.0 170.5V651.5Q613.0 730.5 532.0 730.5H400.0Q320.0 730.5 320.0 651.5ZM685.0 723.5V177.5Q685.0 137.5 722.0 137.5Q759.0 137.5 759.0 177.5V723.5Q759.0 762.5 722.0 762.5Q685.0 762.5 685.0 723.5ZM539.0 190.5Q539.0 163.5 510.0 161.5H423.0Q395.0 161.5 393.0 190.5V277.5H539.0ZM106.0 409.5Q79.0 395.5 79.0 374.5Q79.0 352.5 89.5 342.0Q100.0 331.5 122.0 331.5Q151.0 331.5 212.0 363.5Q242.0 379.5 242.0 404.5Q242.0 426.5 232.5 437.0Q223.0 447.5 202.0 447.5Q182.0 447.5 106.0 409.5ZM539.0 463.5V344.5H393.0V463.5ZM539.0 630.5V531.5H393.0V630.5Q393.0 658.5 423.0 660.5H510.0Q538.0 660.5 539.0 630.5ZM83.0 905.5Q83.0 893.5 110.0 820.5Q135.0 754.5 177.0 607.5Q186.0 574.5 214.0 574.5Q254.0 574.5 254.0 612.5Q254.0 635.5 215.0 762.5Q178.0 881.5 164.0 917.5Q159.0 930.5 149.0 938.0Q139.0 945.5 126.0 945.5Q83.0 945.5 83.0 905.5ZM260.0 901.5Q260.0 887.5 275.0 869.5Q314.0 822.5 335.0 789.5Q362.0 744.5 386.0 744.5Q404.0 744.5 414.0 753.5Q424.0 762.5 424.0 779.5Q424.0 795.5 374.0 868.5Q323.0 941.5 297.0 941.5Q260.0 941.5 260.0 901.5ZM571.0 889.5 522.0 811.5Q520.0 808.5 513.5 797.5Q507.0 786.5 507.0 780.5Q507.0 763.5 517.0 754.5Q527.0 745.5 544.0 745.5Q569.0 745.5 613.0 806.5Q656.0 867.5 656.0 882.5Q656.0 922.5 615.0 922.5Q594.0 922.5 571.0 889.5Z" fill="black"></path></svg>